<svg width="16" height="16" viewBox="0 0 16 16" fill="none" xmlns="http://www.w3.org/2000/svg">
<g clip-path="url(#clip0_1228_1534)">
<path d="M8.00012 0C6.73637 0.000135338 5.49064 0.29966 4.36496 0.874036C3.23928 1.44841 2.26569 2.2813 1.52395 3.30446C0.782199 4.32763 0.2934 5.51197 0.0975908 6.76045C-0.0982186 8.00894 0.00453277 9.28605 0.397427 10.4872C0.790322 11.6883 1.46218 12.7792 2.35797 13.6707C3.25375 14.5621 4.34798 15.2286 5.55101 15.6156C6.75403 16.0026 8.03163 16.0991 9.27915 15.8972C10.5267 15.6953 11.7086 15.2007 12.7281 14.454L11.9388 13.3793C10.7298 14.2646 9.25774 14.7168 7.76021 14.6629C6.26268 14.609 4.82698 14.0521 3.68478 13.0821C2.54257 12.1121 1.76046 10.7856 1.46464 9.3166C1.16883 7.84758 1.37656 6.32174 2.05432 4.98527C2.73208 3.6488 3.84033 2.57965 5.20028 1.95031C6.56022 1.32098 8.09253 1.16817 9.54998 1.51654C11.0074 1.86491 12.305 2.69414 13.2333 3.87044C14.1617 5.04674 14.6667 6.5015 14.6668 8V9.33333C14.6668 9.68696 14.5263 10.0261 14.2763 10.2761C14.0262 10.5262 13.6871 10.6667 13.3335 10.6667C12.9798 10.6667 12.6407 10.5262 12.3906 10.2761C12.1406 10.0261 12.0001 9.68696 12.0001 9.33333V8C12.0034 7.05886 11.6758 6.1465 11.0747 5.42234C10.4735 4.69819 9.63706 4.20828 8.7114 4.03823C7.78574 3.86819 6.82976 4.02881 6.0105 4.49203C5.19124 4.95525 4.5608 5.69162 4.22933 6.57247C3.89787 7.45332 3.88645 8.42263 4.19709 9.31104C4.50773 10.1994 5.12066 10.9505 5.92879 11.4328C6.73692 11.9152 7.68885 12.0983 8.61826 11.9501C9.54766 11.8019 10.3954 11.3318 11.0135 10.622C11.2977 11.1398 11.7464 11.5481 12.2887 11.7824C12.8309 12.0168 13.4358 12.0637 14.0077 11.9159C14.5796 11.7681 15.086 11.434 15.4468 10.9663C15.8076 10.4986 16.0023 9.92403 16.0001 9.33333V8C15.9978 5.87897 15.1542 3.84547 13.6544 2.34568C12.1546 0.845885 10.1212 0.00229405 8.00012 0V0ZM8.00012 10.6667C7.4727 10.6667 6.95713 10.5103 6.5186 10.2173C6.08007 9.92424 5.73828 9.50776 5.53644 9.02049C5.33461 8.53322 5.2818 7.99704 5.38469 7.47976C5.48759 6.96248 5.74156 6.48732 6.1145 6.11438C6.48744 5.74144 6.9626 5.48747 7.47988 5.38457C7.99716 5.28168 8.53334 5.33449 9.02061 5.53632C9.50788 5.73815 9.92436 6.07995 10.2174 6.51848C10.5104 6.95701 10.6668 7.47258 10.6668 8C10.6668 8.70724 10.3858 9.38552 9.88574 9.88562C9.38564 10.3857 8.70737 10.6667 8.00012 10.6667Z" fill="black"/>
</g>
<defs>
<clipPath id="clip0_1228_1534">
<rect width="16" height="16" fill="white"/>
</clipPath>
</defs>
</svg>
