<svg width="13" height="24" viewBox="0 0 13 24" fill="none" xmlns="http://www.w3.org/2000/svg">
<path d="M1.99994 -0.000183105C1.86833 -0.000944138 1.73787 0.0242805 1.61603 0.0740452C1.4942 0.12381 1.38338 0.197136 1.28994 0.289818C1.19621 0.38278 1.12182 0.49338 1.07105 0.61524C1.02028 0.737099 0.994141 0.867804 0.994141 0.999817C0.994141 1.13183 1.02028 1.26253 1.07105 1.38439C1.12182 1.50625 1.19621 1.61685 1.28994 1.70982L9.45994 9.87982C10.0217 10.4423 10.3373 11.2048 10.3373 11.9998C10.3373 12.7948 10.0217 13.5573 9.45994 14.1198L1.28994 22.2898C1.10164 22.4781 0.995847 22.7335 0.995847 22.9998C0.995847 23.2661 1.10164 23.5215 1.28994 23.7098C1.47824 23.8981 1.73364 24.0039 1.99994 24.0039C2.26624 24.0039 2.52164 23.8981 2.70994 23.7098L10.8799 15.5398C11.3456 15.0754 11.715 14.5236 11.9671 13.9162C12.2191 13.3087 12.3489 12.6575 12.3489 11.9998C12.3489 11.3421 12.2191 10.6909 11.9671 10.0835C11.715 9.47603 11.3456 8.92427 10.8799 8.45982L2.70994 0.289818C2.6165 0.197136 2.50568 0.12381 2.38385 0.0740452C2.26201 0.0242805 2.13155 -0.000944138 1.99994 -0.000183105Z" fill="black"/>
</svg>
