<svg width="24" height="20" viewBox="0 0 24 20" fill="none" xmlns="http://www.w3.org/2000/svg">
<path d="M5 16C4.447 16 4 15.552 4 15V5C4 4.448 4.447 4 5 4C5.553 4 6 4.448 6 5V15C6 15.552 5.553 16 5 16ZM10 15V5C10 4.448 9.553 4 9 4C8.447 4 8 4.448 8 5V15C8 15.552 8.447 16 9 16C9.553 16 10 15.552 10 15ZM20 15V5C20 4.448 19.553 4 19 4C18.447 4 18 4.448 18 5V15C18 15.552 18.447 16 19 16C19.553 16 20 15.552 20 15ZM14 14.5V5.5C14 4.671 13.328 4 12.5 4C11.672 4 11 4.671 11 5.5V14.5C11 15.329 11.672 16 12.5 16C13.328 16 14 15.329 14 14.5ZM7 19C7 18.448 6.553 18 6 18H4C2.897 18 2 17.103 2 16V14C2 13.448 1.553 13 1 13C0.447 13 0 13.448 0 14V16C0 18.206 1.794 20 4 20H6C6.553 20 7 19.552 7 19ZM24 16V14C24 13.448 23.553 13 23 13C22.447 13 22 13.448 22 14V16C22 17.103 21.103 18 20 18H18C17.447 18 17 18.448 17 19C17 19.552 17.447 20 18 20H20C22.206 20 24 18.206 24 16ZM24 6V4C24 1.794 22.206 0 20 0H18C17.447 0 17 0.448 17 1C17 1.552 17.447 2 18 2H20C21.103 2 22 2.897 22 4V6C22 6.552 22.447 7 23 7C23.553 7 24 6.552 24 6ZM2 6V4C2 2.897 2.897 2 4 2H6C6.553 2 7 1.552 7 1C7 0.448 6.553 0 6 0H4C1.794 0 0 1.794 0 4V6C0 6.552 0.447 7 1 7C1.553 7 2 6.552 2 6ZM15.5 16C15.224 16 15 15.776 15 15.5V4.5C15 4.224 15.224 4 15.5 4C15.776 4 16 4.224 16 4.5V15.5C16 15.776 15.776 16 15.5 16Z" fill="#303030"/>
</svg>
