<svg width="24" height="24" viewBox="0 0 24 24" fill="none" xmlns="http://www.w3.org/2000/svg">
<path d="M19.5 12H17C16.0808 12 15.3333 12.7475 15.3333 13.6667C15.3333 14.5858 14.5858 15.3333 13.6667 15.3333H10.3333C9.41417 15.3333 8.66667 14.5858 8.66667 13.6667C8.66667 12.7475 7.91917 12 7 12H4.5C3.12167 12 2 13.1217 2 14.5V17.8333C2 20.1308 3.86917 22 6.16667 22H17.8333C20.1308 22 22 20.1308 22 17.8333V14.5C22 13.1217 20.8783 12 19.5 12ZM20.3333 17.8333C20.3333 19.2117 19.2117 20.3333 17.8333 20.3333H6.16667C4.78833 20.3333 3.66667 19.2117 3.66667 17.8333V14.5C3.66667 14.04 4.04 13.6667 4.5 13.6667L7 13.665V13.6667C7 15.505 8.495 17 10.3333 17H13.6667C15.505 17 17 15.505 17 13.6667H19.5C19.96 13.6667 20.3333 14.04 20.3333 14.5V17.8333Z" fill="#303030"/>
<path d="M15.9226 7.93413C16.2485 7.60829 16.2485 7.08163 15.9226 6.75579C15.5968 6.42996 15.0701 6.42996 14.7443 6.75579L12.8335 8.66663L12.8335 2.83329C12.8335 2.37246 12.461 1.99996 12.0001 1.99996C11.5393 1.99996 11.1668 2.37246 11.1668 2.83329L11.1668 8.66663L9.25595 6.75579C9.09345 6.59329 8.88012 6.51163 8.66678 6.51163C8.45345 6.51163 8.24012 6.59329 8.07762 6.75579C7.75178 7.08163 7.75178 7.60829 8.07762 7.93413L10.8218 10.6783C11.1435 11 11.5651 11.1616 11.9885 11.1641L12.0001 11.1666L12.0118 11.1641C12.4343 11.1616 12.8568 11 13.1785 10.6783L15.9226 7.93413Z" fill="#303030"/>
</svg>
