<svg width="6" height="4" viewBox="0 0 6 4" fill="none" xmlns="http://www.w3.org/2000/svg">
<path d="M5.96571 0.142923C5.94025 0.0998451 5.90203 0.0637653 5.85518 0.0385775C5.80834 0.0133898 5.75464 5.07404e-05 5.69989 0H0.299386C0.244734 0.000200629 0.191178 0.0136382 0.144476 0.0388674C0.0977745 0.0640967 0.0596948 0.100163 0.0343323 0.143188C0.00896969 0.186213 -0.0027162 0.234569 0.000531289 0.283055C0.00377878 0.331542 0.0218368 0.378324 0.0527633 0.418371L2.75301 3.8848C2.78054 3.92033 2.81737 3.94938 2.86033 3.96945C2.90329 3.98951 2.9511 4 2.99964 4C3.04817 4 3.09598 3.98951 3.13894 3.96945C3.18191 3.94938 3.21873 3.92033 3.24626 3.8848L5.94651 0.418371C5.97774 0.378406 5.99604 0.331597 5.99943 0.283032C6.00281 0.234468 5.99115 0.186009 5.96571 0.142923Z" fill="#303030"/>
</svg>
