<svg width="24" height="24" viewBox="0 0 24 24" fill="none" xmlns="http://www.w3.org/2000/svg">
<path d="M11.25 8.25H12.75V15H11.25V8.25Z" fill="#4AAF3E"/>
<path d="M9.75 1.5H14.25V3H9.75V1.5Z" fill="#4AAF3E"/>
<path d="M21.0001 6.75009L19.9351 5.69259L18.2476 7.38009C16.8662 5.78486 14.9234 4.78316 12.8227 4.58312C10.722 4.38307 8.62503 5.00006 6.96742 6.30589C5.30981 7.61172 4.21903 9.50599 3.92172 11.5951C3.62441 13.6843 4.14342 15.8076 5.37092 17.524C6.59843 19.2405 8.44004 20.418 10.5131 20.8119C12.5862 21.2059 14.7314 20.7859 16.5029 19.6394C18.2744 18.4929 19.5361 16.7079 20.0259 14.6553C20.5156 12.6028 20.1957 10.4404 19.1326 8.61758L21.0001 6.75009ZM12.0001 19.5001C10.6651 19.5001 9.36001 19.1042 8.24998 18.3625C7.13995 17.6208 6.27478 16.5666 5.76389 15.3332C5.253 14.0998 5.11933 12.7426 5.37978 11.4332C5.64023 10.1239 6.2831 8.92112 7.22711 7.97711C8.17111 7.03311 9.37385 6.39023 10.6832 6.12978C11.9926 5.86933 13.3498 6.00301 14.5832 6.5139C15.8166 7.02479 16.8708 7.88995 17.6125 8.99999C18.3542 10.11 18.7501 11.4151 18.7501 12.7501C18.7501 14.5403 18.0389 16.2572 16.773 17.5231C15.5072 18.7889 13.7903 19.5001 12.0001 19.5001V19.5001Z" fill="#4AAF3E"/>
</svg>
