<svg width="48" height="48" viewBox="0 0 48 48" fill="none" xmlns="http://www.w3.org/2000/svg">
<g clip-path="url(#clip0_1955_4077)">
<path d="M38 16.848V14C38 10.287 36.525 6.72601 33.8995 4.10051C31.274 1.475 27.713 0 24 0C20.287 0 16.726 1.475 14.1005 4.10051C11.475 6.72601 10 10.287 10 14V16.848C8.21872 17.6254 6.70259 18.905 5.637 20.5304C4.57141 22.1558 4.00256 24.0565 4 26V38C4.00318 40.6512 5.05776 43.1929 6.93244 45.0676C8.80712 46.9422 11.3488 47.9968 14 48H34C36.6512 47.9968 39.1929 46.9422 41.0676 45.0676C42.9422 43.1929 43.9968 40.6512 44 38V26C43.9974 24.0565 43.4286 22.1558 42.363 20.5304C41.2974 18.905 39.7813 17.6254 38 16.848ZM14 14C14 11.3478 15.0536 8.8043 16.9289 6.92893C18.8043 5.05357 21.3478 4 24 4C26.6522 4 29.1957 5.05357 31.0711 6.92893C32.9464 8.8043 34 11.3478 34 14V16H14V14ZM40 38C40 39.5913 39.3679 41.1174 38.2426 42.2426C37.1174 43.3679 35.5913 44 34 44H14C12.4087 44 10.8826 43.3679 9.75736 42.2426C8.63214 41.1174 8 39.5913 8 38V26C8 24.4087 8.63214 22.8826 9.75736 21.7574C10.8826 20.6321 12.4087 20 14 20H34C35.5913 20 37.1174 20.6321 38.2426 21.7574C39.3679 22.8826 40 24.4087 40 26V38Z" fill="black"/>
<path d="M24 28C23.4696 28 22.9609 28.2107 22.5858 28.5858C22.2107 28.9609 22 29.4696 22 30V34C22 34.5304 22.2107 35.0391 22.5858 35.4142C22.9609 35.7893 23.4696 36 24 36C24.5304 36 25.0391 35.7893 25.4142 35.4142C25.7893 35.0391 26 34.5304 26 34V30C26 29.4696 25.7893 28.9609 25.4142 28.5858C25.0391 28.2107 24.5304 28 24 28Z" fill="black"/>
</g>
<defs>
<clipPath id="clip0_1955_4077">
<rect width="48" height="48" fill="white"/>
</clipPath>
</defs>
</svg>
