<svg width="24" height="24" viewBox="0 0 24 24" fill="none" xmlns="http://www.w3.org/2000/svg">
<path d="M17 23C17 23.552 16.553 24 16 24H7C4.243 24 2 21.757 2 19V5C2 2.243 4.243 0 7 0H11.515C13.384 0 15.142 0.728 16.465 2.05L19.949 5.536C20.22 5.807 20.472 6.104 20.697 6.419C21.018 6.868 20.914 7.493 20.465 7.814C20.016 8.134 19.39 8.031 19.07 7.581C18.909 7.356 18.729 7.143 18.536 6.951L15.051 3.465C14.733 3.147 14.38 2.878 14 2.66V7C14 7.551 14.448 8 15 8H18C18.553 8 19 8.448 19 9C19 9.552 18.553 10 18 10H15C13.346 10 12 8.654 12 7V2.023C11.84 2.008 11.678 2 11.515 2H7C5.346 2 4 3.346 4 5V19C4 20.654 5.346 22 7 22H16C16.553 22 17 22.448 17 23ZM8.5 15H14C14.553 15 15 14.552 15 14C15 13.448 14.553 13 14 13H8.5C7.122 13 6 14.122 6 15.5V17.5C6 18.878 7.122 20 8.5 20H14C14.553 20 15 19.552 15 19C15 18.448 14.553 18 14 18H8.5C8.224 18 8 17.776 8 17.5V15.5C8 15.224 8.224 15 8.5 15ZM7 11H9C9.552 11 10 10.552 10 10C10 9.448 9.552 9 9 9H7C6.448 9 6 9.448 6 10C6 10.552 6.448 11 7 11ZM7 7H9C9.552 7 10 6.552 10 6C10 5.448 9.552 5 9 5H7C6.448 5 6 5.448 6 6C6 6.552 6.448 7 7 7Z" fill="#303030"/>
<path d="M22.795 16.995C22.9262 16.8637 23 16.6857 23 16.5C23 16.3143 22.9262 16.1363 22.795 16.005C22.6637 15.8738 22.4857 15.8 22.3 15.8H20.2V13.7C20.2 13.5143 20.1263 13.3363 19.995 13.205C19.8637 13.0737 19.6857 13 19.5 13C19.3143 13 19.1363 13.0737 19.005 13.205C18.8737 13.3363 18.8 13.5143 18.8 13.7V15.8H16.7C16.5143 15.8 16.3363 15.8738 16.205 16.005C16.0738 16.1363 16 16.3143 16 16.5C16 16.6857 16.0738 16.8637 16.205 16.995C16.3363 17.1262 16.5143 17.2 16.7 17.2H18.8V19.3C18.8 19.4857 18.8737 19.6637 19.005 19.795C19.1363 19.9262 19.3143 20 19.5 20C19.6857 20 19.8637 19.9262 19.995 19.795C20.1263 19.6637 20.2 19.4857 20.2 19.3V17.2H22.3C22.4857 17.2 22.6637 17.1262 22.795 16.995Z" fill="#303030"/>
</svg>
