<svg width="24" height="24" viewBox="0 0 24 24" fill="none" xmlns="http://www.w3.org/2000/svg">
<path d="M1.18544 13.6582L3.10706 6.82296C3.6703 4.82052 4.89442 3.06167 6.58484 1.826C8.27526 0.590322 10.335 -0.0512704 12.4366 0.00320346C14.5381 0.0576773 16.561 0.805092 18.1836 2.12664C19.8062 3.44819 20.9354 5.26804 21.3918 7.2969L22.8795 13.9111C23.0438 14.642 23.04 15.4 22.8684 16.1292C22.6967 16.8584 22.3616 17.5402 21.8878 18.1242C21.4139 18.7082 20.8134 19.1796 20.1307 19.5035C19.4479 19.8273 18.7003 19.9955 17.943 19.9954H16.8163C16.5842 21.1256 15.964 22.1417 15.0608 22.8715C14.1576 23.6013 13.027 24 11.8605 24C10.6941 24 9.56345 23.6013 8.66027 22.8715C7.7571 22.1417 7.13691 21.1256 6.90478 19.9954H6.05725C5.27766 19.9955 4.50863 19.8174 3.81021 19.4749C3.11179 19.1325 2.50291 18.6351 2.03113 18.0215C1.55935 17.408 1.23744 16.6949 1.09056 15.9379C0.943686 15.181 0.975809 14.4008 1.18443 13.6582H1.18544ZM11.8605 21.9952C12.4858 21.9927 13.0951 21.7992 13.6049 21.4412C14.1147 21.0832 14.5001 20.5783 14.7086 19.9954H9.01249C9.22092 20.5783 9.60641 21.0832 10.1162 21.4412C10.626 21.7992 11.2352 21.9927 11.8605 21.9952ZM3.64207 16.8108C3.9239 17.1804 4.28903 17.48 4.70846 17.6857C5.1279 17.8914 5.59007 17.9975 6.05826 17.9957H17.943C18.3973 17.9956 18.8458 17.8947 19.2554 17.7003C19.665 17.5059 20.0252 17.2231 20.3094 16.8727C20.5937 16.5223 20.7947 16.1133 20.8976 15.6758C21.0006 15.2383 21.0029 14.7836 20.9043 14.3451L19.4176 7.72985C19.0592 6.13624 18.1722 4.7068 16.8977 3.66877C15.6233 2.63073 14.0344 2.04367 12.3836 2.00092C10.7329 1.95817 9.11512 2.46217 7.78741 3.43281C6.45969 4.40345 5.49827 5.78502 5.05598 7.35789L3.13436 14.1931C3.00739 14.6384 2.98717 15.1069 3.0753 15.5613C3.16343 16.0157 3.35749 16.4435 3.64207 16.8108Z" fill="#9E9E9E"/>
</svg>
