<svg width="16" height="16" viewBox="0 0 16 16" fill="none" xmlns="http://www.w3.org/2000/svg">
<path d="M13.2997 3.69073L10.9763 1.3674C10.095 0.486066 8.92301 0.000732645 7.67634 0.000732645H4.66634C2.82834 6.5978e-05 1.33301 1.4954 1.33301 3.3334V12.6667C1.33301 14.5047 2.82834 16.0001 4.66634 16.0001H11.333C13.171 16.0001 14.6663 14.5047 14.6663 12.6667V6.99007C14.6663 5.7434 14.181 4.57207 13.2997 3.69007V3.69073ZM12.357 4.6334C12.569 4.8454 12.7483 5.08073 12.8937 5.3334H9.99967C9.63234 5.3334 9.33301 5.03407 9.33301 4.66673V1.77273C9.58567 1.91807 9.82167 2.0974 10.033 2.3094L12.3563 4.63273L12.357 4.6334ZM13.333 12.6667C13.333 13.7694 12.4357 14.6667 11.333 14.6667H4.66634C3.56367 14.6667 2.66634 13.7694 2.66634 12.6667V3.3334C2.66634 2.23073 3.56367 1.3334 4.66634 1.3334H7.67634C7.78501 1.3334 7.89301 1.33873 7.99967 1.34873V4.66673C7.99967 5.7694 8.89701 6.66673 9.99967 6.66673H13.3177C13.3277 6.7734 13.333 6.8814 13.333 6.99007V12.6667ZM10.333 8.66673H5.66634C4.74767 8.66673 3.99967 9.41473 3.99967 10.3334V11.6667C3.99967 12.5854 4.74767 13.3334 5.66634 13.3334H10.333C11.2517 13.3334 11.9997 12.5854 11.9997 11.6667V10.3334C11.9997 9.41473 11.2517 8.66673 10.333 8.66673ZM10.6663 11.6667C10.6663 11.8507 10.517 12.0001 10.333 12.0001H5.66634C5.48234 12.0001 5.33301 11.8507 5.33301 11.6667V10.3334C5.33301 10.1494 5.48234 10.0001 5.66634 10.0001H10.333C10.517 10.0001 10.6663 10.1494 10.6663 10.3334V11.6667ZM3.99967 6.66673C3.99967 6.29873 4.29834 6.00007 4.66634 6.00007H5.99967C6.36767 6.00007 6.66634 6.29873 6.66634 6.66673C6.66634 7.03473 6.36767 7.3334 5.99967 7.3334H4.66634C4.29834 7.3334 3.99967 7.03473 3.99967 6.66673ZM3.99967 4.00007C3.99967 3.63207 4.29834 3.3334 4.66634 3.3334H5.99967C6.36767 3.3334 6.66634 3.63207 6.66634 4.00007C6.66634 4.36807 6.36767 4.66673 5.99967 4.66673H4.66634C4.29834 4.66673 3.99967 4.36807 3.99967 4.00007Z" fill="white"/>
</svg>
