<svg width="40" height="40" viewBox="0 0 40 40" fill="none" xmlns="http://www.w3.org/2000/svg">
<circle cx="20" cy="20" r="19.5" fill="white" stroke="#F2F2F2"/>
<path d="M20 11C20.7417 11 21.4667 11.2199 22.0834 11.632C22.7001 12.044 23.1807 12.6297 23.4646 13.3149C23.7484 14.0002 23.8226 14.7542 23.6779 15.4816C23.5333 16.209 23.1761 16.8772 22.6517 17.4017C22.1272 17.9261 21.459 18.2833 20.7316 18.4279C20.0042 18.5726 19.2502 18.4984 18.5649 18.2145C17.8797 17.9307 17.294 17.4501 16.882 16.8334C16.4699 16.2167 16.25 15.4917 16.25 14.75C16.25 13.7554 16.6451 12.8016 17.3484 12.0983C18.0516 11.3951 19.0054 11 20 11ZM20 9.5C18.9617 9.5 17.9466 9.80791 17.0833 10.3848C16.2199 10.9617 15.547 11.7816 15.1496 12.7409C14.7523 13.7002 14.6483 14.7558 14.8509 15.7742C15.0535 16.7926 15.5535 17.7281 16.2877 18.4623C17.0219 19.1965 17.9574 19.6966 18.9758 19.8991C19.9942 20.1017 21.0498 19.9977 22.0091 19.6004C22.9684 19.203 23.7883 18.5301 24.3652 17.6667C24.9421 16.8034 25.25 15.7884 25.25 14.75C25.25 13.3576 24.6969 12.0223 23.7123 11.0377C22.7277 10.0531 21.3924 9.5 20 9.5Z" fill="#303030"/>
<path d="M27.5 30.5H26V26.75C26 26.2575 25.903 25.7699 25.7145 25.3149C25.5261 24.86 25.2499 24.4466 24.9017 24.0983C24.5534 23.7501 24.14 23.4739 23.6851 23.2855C23.2301 23.097 22.7425 23 22.25 23H17.75C16.7554 23 15.8016 23.3951 15.0983 24.0983C14.3951 24.8016 14 25.7554 14 26.75V30.5H12.5V26.75C12.5 25.3576 13.0531 24.0223 14.0377 23.0377C15.0223 22.0531 16.3576 21.5 17.75 21.5H22.25C23.6424 21.5 24.9777 22.0531 25.9623 23.0377C26.9469 24.0223 27.5 25.3576 27.5 26.75V30.5Z" fill="#303030"/>
</svg>
