<svg width="16" height="16" viewBox="0 0 16 16" fill="none" xmlns="http://www.w3.org/2000/svg">
<g clip-path="url(#clip0_2330_1200)">
<path d="M15.7398 7.22381L14.5945 4.82914C14.4491 4.52581 14.0998 4.37714 13.7818 4.48448L7.99714 6.41514L2.20447 4.48514C1.88647 4.37914 1.53714 4.52648 1.3918 4.83048L0.290471 7.14581C-0.0275287 7.67381 -0.0875287 8.30781 0.125805 8.88514C0.332471 9.44514 0.768471 9.87914 1.32647 10.0818L1.32247 11.6251C1.32247 13.0631 2.2378 14.3351 3.6018 14.7898L6.51181 15.7605C6.98781 15.9185 7.48781 15.9978 7.98781 15.9978C8.48781 15.9978 8.98781 15.9185 9.46381 15.7598L12.3765 14.7891C13.7391 14.3345 14.6551 13.0651 14.6558 11.6305L14.6598 10.0825C15.2238 9.88514 15.6651 9.45248 15.8725 8.89048C16.0831 8.31848 16.0238 7.69048 15.7398 7.22381ZM1.46247 7.77714L2.34114 5.93514L7.05114 7.50448L5.97114 9.67514C5.80981 9.94581 5.48514 10.0645 5.18847 9.96581L1.80114 8.83581C1.60247 8.76981 1.4478 8.61981 1.37514 8.42381C1.30314 8.22848 1.3238 8.01314 1.46247 7.77714ZM4.0238 13.5258C3.20514 13.2525 2.65514 12.4891 2.6558 11.6271L2.65847 10.5271L4.76781 11.2305C5.66514 11.5278 6.62981 11.1705 7.14047 10.3158L7.32514 9.94581L7.32247 14.5985C7.19114 14.5718 7.06181 14.5378 6.93447 14.4958L4.02447 13.5258H4.0238ZM11.9545 13.5245L9.04181 14.4951C8.91514 14.5371 8.78581 14.5718 8.65514 14.5985L8.65781 9.93514L8.87047 10.3618C9.24181 10.9805 9.89181 11.3351 10.5785 11.3351C10.7905 11.3351 11.0071 11.3011 11.2185 11.2305L13.3251 10.5285L13.3225 11.6291C13.3225 12.4905 12.7725 13.2518 11.9545 13.5245ZM14.6211 8.42781C14.5511 8.61781 14.4005 8.76381 14.2085 8.82848L10.7965 9.96514C10.5045 10.0631 10.1731 9.94114 10.0391 9.72181L8.93647 7.50714L13.6458 5.93581L14.5671 7.85581C14.6711 8.02981 14.6918 8.23781 14.6211 8.42781ZM3.47581 3.93048C3.21514 3.66981 3.21514 3.24848 3.47581 2.98781L6.07381 0.390477C6.59314 -0.128857 7.43981 -0.128857 7.95914 0.390477L9.02314 1.45448C9.52514 1.19781 10.1818 1.27448 10.5918 1.68448L12.0951 3.18781C12.3558 3.44848 12.3558 3.86981 12.0951 4.13048C11.8345 4.39114 11.4131 4.39114 11.1525 4.13048L9.64914 2.62714L7.54847 4.72781C7.41847 4.85781 7.24781 4.92314 7.07714 4.92314C6.90647 4.92314 6.73581 4.85781 6.60581 4.72781C6.34514 4.46714 6.34514 4.04581 6.60581 3.78514L8.03714 2.35381L7.01714 1.33381L4.41914 3.93114C4.28914 4.06114 4.11847 4.12648 3.9478 4.12648C3.77714 4.12648 3.60647 4.06114 3.47647 3.93114L3.47581 3.93048Z" fill="white"/>
</g>
<defs>
<clipPath id="clip0_2330_1200">
<rect width="16" height="16" fill="white"/>
</clipPath>
</defs>
</svg>
