<svg width="16" height="16" viewBox="0 0 16 16" fill="none" xmlns="http://www.w3.org/2000/svg">
<g clip-path="url(#clip0_2330_1213)">
<path d="M13 10.6667C13 11.0353 12.702 11.3333 12.3333 11.3333H11C10.6313 11.3333 10.3333 11.0353 10.3333 10.6667C10.3333 10.298 10.6313 10 11 10H12.3333C12.702 10 13 10.298 13 10.6667ZM16 10V13.3333C16 14.804 14.804 16 13.3333 16H2.66667C1.196 16 0 14.804 0 13.3333V10C0 8.52933 1.196 7.33333 2.66667 7.33333H3.33333V2.66667C3.33333 1.196 4.52933 0 6 0H10C11.4707 0 12.6667 1.196 12.6667 2.66667V7.33333H13.3333C14.804 7.33333 16 8.52933 16 10ZM4.66667 7.33333H11.3333V2.66667C11.3333 1.93133 10.7353 1.33333 10 1.33333H6C5.26467 1.33333 4.66667 1.93133 4.66667 2.66667V7.33333ZM2.66667 14.6667H7.33333V8.66667H2.66667C1.93133 8.66667 1.33333 9.26467 1.33333 10V13.3333C1.33333 14.0687 1.93133 14.6667 2.66667 14.6667ZM14.6667 10C14.6667 9.26467 14.0687 8.66667 13.3333 8.66667H8.66667V14.6667H13.3333C14.0687 14.6667 14.6667 14.0687 14.6667 13.3333V10ZM5 10H3.66667C3.298 10 3 10.298 3 10.6667C3 11.0353 3.298 11.3333 3.66667 11.3333H5C5.36867 11.3333 5.66667 11.0353 5.66667 10.6667C5.66667 10.298 5.36867 10 5 10ZM9.33333 3.33333C9.33333 2.96467 9.03533 2.66667 8.66667 2.66667H7.33333C6.96467 2.66667 6.66667 2.96467 6.66667 3.33333C6.66667 3.702 6.96467 4 7.33333 4H8.66667C9.03533 4 9.33333 3.702 9.33333 3.33333Z" fill="#303030"/>
</g>
<defs>
<clipPath id="clip0_2330_1213">
<rect width="16" height="16" fill="white"/>
</clipPath>
</defs>
</svg>
