<svg width="16" height="16" viewBox="0 0 16 16" fill="none" xmlns="http://www.w3.org/2000/svg">
<g clip-path="url(#clip0_1961_7305)">
<g clip-path="url(#clip1_1961_7305)">
<path d="M13.3 3.69067L10.9767 1.36734C10.0954 0.486005 8.92337 0.00067161 7.67671 0.00067161H4.66671C2.82871 4.94282e-06 1.33337 1.49534 1.33337 3.33334V12.6667C1.33337 14.5047 2.82871 16 4.66671 16H11.3334C13.1714 16 14.6667 14.5047 14.6667 12.6667V6.99001C14.6667 5.74334 14.1814 4.57201 13.3 3.69001V3.69067ZM12.3574 4.63334C12.5694 4.84534 12.7487 5.08067 12.894 5.33334H10C9.63271 5.33334 9.33337 5.03401 9.33337 4.66667V1.77267C9.58604 1.918 9.82204 2.09734 10.0334 2.30934L12.3567 4.63267L12.3574 4.63334ZM13.3334 12.6667C13.3334 13.7693 12.436 14.6667 11.3334 14.6667H4.66671C3.56404 14.6667 2.66671 13.7693 2.66671 12.6667V3.33334C2.66671 2.23067 3.56404 1.33334 4.66671 1.33334H7.67671C7.78537 1.33334 7.89337 1.33867 8.00004 1.34867V4.66667C8.00004 5.76934 8.89737 6.66667 10 6.66667H13.318C13.328 6.77334 13.3334 6.88134 13.3334 6.99001V12.6667ZM10.3334 8.66667H5.66671C4.74804 8.66667 4.00004 9.41467 4.00004 10.3333V11.6667C4.00004 12.5853 4.74804 13.3333 5.66671 13.3333H10.3334C11.252 13.3333 12 12.5853 12 11.6667V10.3333C12 9.41467 11.252 8.66667 10.3334 8.66667ZM10.6667 11.6667C10.6667 11.8507 10.5174 12 10.3334 12H5.66671C5.48271 12 5.33337 11.8507 5.33337 11.6667V10.3333C5.33337 10.1493 5.48271 10 5.66671 10H10.3334C10.5174 10 10.6667 10.1493 10.6667 10.3333V11.6667ZM4.00004 6.66667C4.00004 6.29867 4.29871 6.00001 4.66671 6.00001H6.00004C6.36804 6.00001 6.66671 6.29867 6.66671 6.66667C6.66671 7.03467 6.36804 7.33334 6.00004 7.33334H4.66671C4.29871 7.33334 4.00004 7.03467 4.00004 6.66667ZM4.00004 4.00001C4.00004 3.63201 4.29871 3.33334 4.66671 3.33334H6.00004C6.36804 3.33334 6.66671 3.63201 6.66671 4.00001C6.66671 4.36801 6.36804 4.66667 6.00004 4.66667H4.66671C4.29871 4.66667 4.00004 4.36801 4.00004 4.00001Z" fill="#303030"/>
</g>
</g>
<defs>
<clipPath id="clip0_1961_7305">
<rect width="16" height="16" fill="white"/>
</clipPath>
<clipPath id="clip1_1961_7305">
<rect width="16" height="16" fill="white"/>
</clipPath>
</defs>
</svg>
