<svg width="32" height="32" viewBox="0 0 32 32" fill="none" xmlns="http://www.w3.org/2000/svg">
<path d="M16 28H13C9.1 28 6 24.9 6 21V17H8V21C8 23.8 10.2 26 13 26H16V28ZM28 15H26V11C26 8.2 23.8 6 21 6H17V4H21C24.9 4 28 7.1 28 11V15Z" fill="black"/>
<path d="M3.94102 4.25476C3.94102 4.17769 3.97956 4.13916 4.05662 4.13916H8.98119C9.05825 4.13916 9.09679 4.17769 9.09679 4.25476V5.24892C9.09679 5.32599 9.05825 5.36452 8.98119 5.36452H5.37446C5.32822 5.36452 5.3051 5.38764 5.3051 5.43388V7.35284C5.3051 7.39908 5.32822 7.4222 5.37446 7.4222H8.41474C8.49181 7.4222 8.53035 7.46073 8.53035 7.5378V8.53196C8.53035 8.60903 8.49181 8.64756 8.41474 8.64756H5.37446C5.32822 8.64756 5.3051 8.67068 5.3051 8.71692V10.7052C5.3051 10.7515 5.32822 10.7746 5.37446 10.7746H8.98119C9.05825 10.7746 9.09679 10.8131 9.09679 10.8902V11.8844C9.09679 11.9614 9.05825 12 8.98119 12H4.05662C3.97956 12 3.94102 11.9614 3.94102 11.8844V4.25476Z" fill="black"/>
<path d="M14.0365 12C13.9595 12 13.9209 11.9614 13.9209 11.8844V8.67068C13.9209 8.30847 13.8323 8.01561 13.655 7.79212C13.4778 7.56863 13.2158 7.45688 12.869 7.45688C12.5299 7.45688 12.2678 7.56863 12.0829 7.79212C11.8979 8.01561 11.8054 8.30847 11.8054 8.67068V11.8844C11.8054 11.9614 11.7669 12 11.6898 12H10.6263C10.5493 12 10.5107 11.9614 10.5107 11.8844V6.54364C10.5107 6.46657 10.5493 6.42804 10.6263 6.42804H11.6898C11.7669 6.42804 11.8054 6.46657 11.8054 6.54364V6.94824H11.817C11.9403 6.77099 12.1214 6.62071 12.3603 6.4974C12.6069 6.36639 12.9152 6.30088 13.2851 6.30088C13.5857 6.30088 13.8516 6.35483 14.0828 6.46272C14.3217 6.56291 14.5259 6.70548 14.6954 6.89044C14.865 7.0754 14.9921 7.29504 15.0769 7.54936C15.1694 7.79597 15.2156 8.06956 15.2156 8.37012V11.8844C15.2156 11.9614 15.1771 12 15.1 12H14.0365Z" fill="black"/>
<path d="M21.8787 20.2548C21.9018 20.1777 21.9519 20.1392 22.029 20.1392H23.0925C23.1696 20.1392 23.2197 20.1777 23.2428 20.2548L25.9016 27.8844C25.9247 27.9614 25.8977 28 25.8207 28H24.6878C24.6107 28 24.5606 27.9614 24.5375 27.8844L24.0173 26.3584H21.0579L20.5377 27.8844C20.5146 27.9614 20.4645 28 20.3875 28H19.2661C19.1891 28 19.1621 27.9614 19.1852 27.8844L21.8787 20.2548ZM23.6011 25.1446L22.5607 22.0928H22.5261L21.4741 25.1446H23.6011Z" fill="black"/>
<path d="M27.0713 28C26.9942 28 26.9557 27.9614 26.9557 27.8844V22.5436C26.9557 22.4666 26.9942 22.428 27.0713 22.428H28.1348C28.2119 22.428 28.2504 22.4666 28.2504 22.5436V23.0176H28.262C28.393 22.8018 28.578 22.6284 28.8169 22.4974C29.0558 22.3664 29.3525 22.3009 29.707 22.3009C29.9305 22.3009 30.1424 22.3433 30.3428 22.428C30.5509 22.5051 30.7281 22.6169 30.8746 22.7633C30.9285 22.8172 30.9362 22.8712 30.8977 22.9251L30.285 23.6996C30.2388 23.7613 30.1848 23.769 30.1232 23.7228C29.9921 23.638 29.8611 23.5725 29.7301 23.5262C29.5991 23.48 29.4565 23.4569 29.3024 23.4569C28.9325 23.4569 28.6627 23.5802 28.4932 23.8268C28.3314 24.0734 28.2504 24.4202 28.2504 24.8672V27.8844C28.2504 27.9614 28.2119 28 28.1348 28H27.0713Z" fill="black"/>
</svg>
