<svg width="16" height="16" viewBox="0 0 16 16" fill="none" xmlns="http://www.w3.org/2000/svg">
<g clip-path="url(#clip0_2330_1196)">
<path d="M14 16.0001C12.8973 16.0001 12 15.1027 12 14.0001V8.66674C12 8.2994 11.7013 8.00007 11.3333 8.00007H4.66667C4.29867 8.00007 4 8.2994 4 8.66674V14.0001C4 15.1027 3.10267 16.0001 2 16.0001C0.897333 16.0001 0 15.1027 0 14.0001V6.48274C0 5.37274 0.549333 4.34007 1.46867 3.7194L6.13533 0.57007C7.268 -0.19393 8.732 -0.19393 9.86467 0.57007L14.5313 3.7194C15.4507 4.34007 16 5.37274 16 6.48274V14.0001C16 15.1027 15.1027 16.0001 14 16.0001ZM4.66667 6.66674H11.3333C12.436 6.66674 13.3333 7.56407 13.3333 8.66674V14.0001C13.3333 14.3674 13.632 14.6667 14 14.6667C14.368 14.6667 14.6667 14.3674 14.6667 14.0001V6.48274C14.6667 5.81674 14.3373 5.19674 13.7853 4.82474L9.11867 1.6754C8.43867 1.21674 7.56133 1.21674 6.882 1.6754L2.21467 4.82474C1.66267 5.19674 1.33333 5.81674 1.33333 6.48274V14.0001C1.33333 14.3674 1.632 14.6667 2 14.6667C2.368 14.6667 2.66667 14.3674 2.66667 14.0001V8.66674C2.66667 7.56407 3.564 6.66674 4.66667 6.66674ZM7.33333 15.3334V14.0001C7.33333 13.6321 7.03533 13.3334 6.66667 13.3334H6C5.63133 13.3334 5.33333 13.6321 5.33333 14.0001V15.3334C5.33333 15.7014 5.63133 16.0001 6 16.0001H6.66667C7.03533 16.0001 7.33333 15.7014 7.33333 15.3334ZM7.33333 11.3334V10.0001C7.33333 9.63207 7.03533 9.3334 6.66667 9.3334H6C5.63133 9.3334 5.33333 9.63207 5.33333 10.0001V11.3334C5.33333 11.7014 5.63133 12.0001 6 12.0001H6.66667C7.03533 12.0001 7.33333 11.7014 7.33333 11.3334ZM10.6667 15.3334V14.0001C10.6667 13.6321 10.3687 13.3334 10 13.3334H9.33333C8.96467 13.3334 8.66667 13.6321 8.66667 14.0001V15.3334C8.66667 15.7014 8.96467 16.0001 9.33333 16.0001H10C10.3687 16.0001 10.6667 15.7014 10.6667 15.3334Z" fill="white"/>
</g>
<defs>
<clipPath id="clip0_2330_1196">
<rect width="16" height="16" fill="white"/>
</clipPath>
</defs>
</svg>
