<svg width="9" height="16" viewBox="0 0 9 16" fill="none" xmlns="http://www.w3.org/2000/svg">
<path d="M7.33337 16C7.42111 16.0005 7.50809 15.9837 7.58931 15.9506C7.67054 15.9174 7.74441 15.8685 7.80671 15.8067C7.86919 15.7447 7.91879 15.671 7.95263 15.5898C7.98648 15.5085 8.0039 15.4214 8.0039 15.3334C8.0039 15.2454 7.98648 15.1582 7.95263 15.077C7.91879 14.9957 7.86919 14.922 7.80671 14.86L2.36004 9.41337C1.9855 9.03837 1.77513 8.53004 1.77513 8.00004C1.77513 7.47004 1.9855 6.96171 2.36004 6.58671L7.80671 1.14004C7.93224 1.01451 8.00277 0.844243 8.00277 0.666709C8.00277 0.489174 7.93224 0.318911 7.80671 0.193375C7.68117 0.0678397 7.51091 -0.00268559 7.33337 -0.00268561C7.15584 -0.00268562 6.98558 0.0678396 6.86004 0.193375L1.41337 5.64004C1.10295 5.94968 0.856666 6.31752 0.688623 6.72248C0.52058 7.12745 0.43408 7.56159 0.43408 8.00004C0.43408 8.43849 0.52058 8.87263 0.688623 9.2776C0.856665 9.68257 1.10295 10.0504 1.41337 10.36L6.86004 15.8067C6.92233 15.8685 6.99621 15.9174 7.07743 15.9506C7.15866 15.9837 7.24563 16.0005 7.33337 16Z" fill="#FFCD12"/>
</svg>
